<svg xmlns="http://www.w3.org/2000/svg" width="64" height="64" id="profile">
  <path d="M16 1020.362c-8.798 0-16 7.203-16 16 0 8.798 7.202 16 16 16s16-7.202 16-16c0-8.891-7.206-16-16-16zm0 1c8.256 0 15 6.648 15 15a14.86 14.86 0 0 1-2.719 8.563c0-.617-.307-1.13-.687-1.5-.38-.37-.85-.656-1.25-.906a.5.5 0 0 0-.031 0c-2.312-1.285-4.782-2.431-6.375-3.157a6.943 6.943 0 0 0 1.062-1.906c.583-.059 1.079-.413 1.375-.906.323-.539.469-1.21.469-1.938 0-.467-.11-.912-.25-1.312.474-1.123.734-2.299.719-3.469-.027-1.996-.86-3.92-2.563-5.312v-.031c-1.32-1.104-2.98-1.876-4.625-2.063-1.653-.188-3.344.238-4.469 1.531-.5.584-1.343.958-2.03 1.532a.5.5 0 0 0-.032.03c-1.978 1.979-2.062 4.942-1.094 7.47-.23.49-.344 1.072-.344 1.687 0 .74.198 1.406.532 1.937.288.46.703.81 1.218.906.304.834.75 1.578 1.313 2.22-1.351.635-3.31 1.587-6.032 3.062a.5.5 0 0 0 0 .03c-.5.278-.881.604-1.125 1.032-.19.334-.276.716-.312 1.125a14.872 14.872 0 0 1-2.75-8.625c0-8.252 6.748-15 15-15zm-1.031 2.032c.332-.025.675-.01 1.031.03 1.422.162 2.95.856 4.125 1.844 1.484 1.206 2.164 2.848 2.188 4.594.016 1.204-.374 2.406-.97 3.562v-.155c.046-1.292-.536-2.38-1.405-3.094-.877-.722-2.027-1.094-3.188-1.094h-3.313c-.908 0-1.833.141-2.593.5s-1.406 1.025-1.406 1.906v.781c-.721-2.15-.673-4.454.843-6a.268.268 0 0 1 .031-.03c.518-.42 1.437-.823 2.126-1.626.656-.755 1.534-1.143 2.53-1.218zm-2.125 6.687c.195-.017.396 0 .594 0h3.312c.939 0 1.89.321 2.563.875.673.554 1.074 1.287 1.03 2.281a.5.5 0 0 0 0 .031v2a.5.5 0 0 0 .907.313c.219-.27.409-.558.594-.844-.02.518-.157.97-.344 1.281-.202.337-.41.469-.656.469a.5.5 0 0 0-.031 0 .5.5 0 0 0-.032 0 .5.5 0 0 0-.03 0 .5.5 0 0 0-.22 0 .5.5 0 0 0-.343.375c-.307 1.075-.985 2.045-1.782 2.781-.987.912-2.197 1.438-2.968 1.438-.703 0-1.762-.448-2.688-1.22-.886-.737-1.645-1.751-2-2.905a.504.504 0 0 0-.469-.375.5.5 0 0 0-.062 0 .504.504 0 0 0-.031 0 .5.5 0 0 0-.032 0c-.17 0-.408-.156-.625-.5-.216-.344-.375-.846-.375-1.407 0-.099.024-.187.032-.28.107.183.226.385.343.562a.5.5 0 0 0 .907-.282V1031.487c0-.42.279-.734.843-1 .424-.2.978-.355 1.563-.406zm6.875 10.313c1.584.722 3.91 1.788 6.093 3 .01.01.023 0 .032 0 .391.245.767.493 1.03.75.27.261.407.497.407.78v1.188a.5.5 0 0 0 0 .062.5.5 0 0 0 0 .031c-2.754 3.145-6.796 5.156-11.281 5.156-4.494 0-8.526-2.032-11.281-5.187v-.844c0-.45.087-.737.218-.969.126-.22.352-.445.72-.656.016-.01.013-.022.03-.03 2.594-1.404 4.476-2.338 5.813-2.97.004.236.047.457.094.688.436 2.154 2.614 3.578 4.843 3.156 2.048-.387 3.406-2.197 3.282-4.156zm-.969.218c.005 1.412-1.01 2.687-2.5 2.969-1.69.32-3.325-.742-3.656-2.375-.017-.084-.022-.165-.031-.25.943.686 1.945 1.125 2.875 1.125 1.07 0 2.256-.582 3.312-1.469z" style="font-size:medium;font-style:normal;font-variant:normal;font-weight:400;font-stretch:normal;text-indent:0;text-align:start;text-decoration:none;line-height:normal;letter-spacing:normal;word-spacing:normal;text-transform:none;direction:ltr;block-progression:tb;writing-mode:lr-tb;text-anchor:start;baseline-shift:baseline;color:#000;fill:#000;fill-opacity:1;stroke:none;stroke-width:1;marker:none;visibility:visible;display:inline;overflow:visible;enable-background:accumulate;font-family:Sans;-inkscape-font-specification:Sans" transform="translate(0 -1020.362)"></path>
</svg>
